<?xml version="1.0" standalone="no"?>
<!DOCTYPE svg PUBLIC "-//W3C//DTD SVG 20010904//EN"
 "http://www.w3.org/TR/2001/REC-SVG-20010904/DTD/svg10.dtd">
<svg version="1.0" xmlns="http://www.w3.org/2000/svg"
 width="224.000000pt" height="225.000000pt" viewBox="0 0 224.000000 225.000000"
 preserveAspectRatio="xMidYMid meet">
<metadata>
Created by potrace 1.16, written by Peter Selinger 2001-2019
</metadata>
<g transform="translate(0.000000,225.000000) scale(0.100000,-0.100000)"
fill="#000000" stroke="none">
<path d="M0 1125 l0 -1125 1120 0 1120 0 0 1125 0 1125 -1120 0 -1120 0 0
-1125z m817 795 c41 -24 59 -60 67 -133 8 -76 25 -115 72 -167 52 -57 105 -82
189 -88 83 -6 119 -22 145 -65 54 -88 -12 -207 -114 -207 -77 0 -136 59 -136
136 0 92 -62 194 -143 236 -23 11 -74 24 -114 29 -41 4 -85 14 -100 21 -63 30
-92 123 -58 187 33 65 128 90 192 51z m710 -11 c79 -38 120 -141 89 -223 -57
-148 -244 -169 -327 -37 -101 158 68 342 238 260z m408 -339 c56 -21 87 -114
58 -175 -27 -57 -60 -76 -139 -83 -82 -6 -137 -28 -189 -73 -45 -40 -85 -124
-85 -179 0 -79 -36 -131 -105 -150 -40 -11 -49 -10 -90 10 -53 26 -75 61 -75
122 0 89 59 138 165 138 70 0 112 17 169 70 50 46 86 114 86 162 0 132 90 202
205 158z m-1404 -10 c24 -13 52 -39 70 -68 27 -41 30 -54 27 -104 -5 -65 -32
-111 -86 -149 -53 -36 -143 -34 -200 4 -117 77 -107 251 18 318 46 25 120 24
171 -1z m322 -324 c52 -22 79 -59 84 -113 8 -94 -53 -153 -157 -153 -72 0
-142 -33 -196 -92 -45 -48 -59 -83 -69 -168 -13 -117 -102 -178 -192 -133 -56
27 -86 77 -81 134 8 84 65 129 164 129 136 0 243 102 260 248 8 74 35 120 84
144 42 22 61 22 103 4z m1027 -321 c29 -15 72 -60 89 -92 14 -27 14 -103 0
-140 -26 -69 -97 -116 -176 -115 -162 1 -239 196 -123 312 57 57 140 70 210
35z m-719 -61 c31 -30 49 -77 49 -134 1 -75 68 -173 143 -209 24 -12 72 -24
108 -27 87 -8 134 -29 153 -69 61 -129 -62 -252 -183 -184 -50 28 -62 51 -72
135 -9 84 -23 115 -75 166 -52 53 -115 80 -198 88 -85 7 -118 26 -141 83 -20
51 -13 96 22 138 34 40 58 50 116 45 36 -2 55 -10 78 -32z m-283 -290 c69 -34
102 -88 102 -165 0 -107 -73 -179 -182 -179 -169 1 -248 196 -127 312 65 62
128 72 207 32z"/>
</g>
</svg>
